HIERARCHY
ROOT Hips
{
	OFFSET -0.179506 -22.333345 2.821913
	CHANNELS 6 Xposition Yposition Zposition Zrotation Yrotation Xrotation 
	JOINT LeftUpLeg
	{
		OFFSET 6.951974 -9.140623 -0.681533
		CHANNELS 3 Zrotation Yrotation Xrotation
		JOINT LeftLeg
		{
			OFFSET 3.427654 -37.519855 -0.449580
			CHANNELS 3 Zrotation Yrotation Xrotation
			JOINT LeftFoot
			{
				OFFSET -1.359570 -39.796059 -4.369333
				CHANNELS 3 Zrotation Yrotation Xrotation
				JOINT LeftToe
				{
					OFFSET 2.635814 -5.579078 11.928840
					CHANNELS 3 Zrotation Yrotation Xrotation
					End Site
					{
						OFFSET 0.000000 0.000000 0.000000
					}
				}
			}
		}
	}
	JOINT RightUpLeg
	{
		OFFSET -6.767048 -9.052170 -0.431982
		CHANNELS 3 Zrotation Yrotation Xrotation
		JOINT RightLeg
		{
			OFFSET -3.829005 -38.256897 -0.885003
			CHANNELS 3 Zrotation Yrotation Xrotation
			JOINT RightFoot
			{
				OFFSET 1.577377 -39.841461 -4.231180
				CHANNELS 3 Zrotation Yrotation Xrotation
				JOINT RightToe
				{
					OFFSET -2.537174 -4.814398 12.334795
					CHANNELS 3 Zrotation Yrotation Xrotation
					End Site
					{
						OFFSET 0.000000 0.000000 0.000000
					}
				}
			}
		}
	}
	JOINT Spine
	{
		OFFSET -0.253288 10.896323 -2.669631
		CHANNELS 3 Zrotation Yrotation Xrotation
		JOINT Spine1
		{
			OFFSET 0.548704 13.518043 0.109247
			CHANNELS 3 Zrotation Yrotation Xrotation
			JOINT Spine2
			{
				OFFSET 0.145701 5.292222 2.542457
				CHANNELS 3 Zrotation Yrotation Xrotation
				JOINT Neck
				{
					OFFSET -0.277840 21.387037 -4.285703
					CHANNELS 3 Zrotation Yrotation Xrotation
					JOINT Head
					{
						OFFSET 0.515184 6.496960 5.134897
						CHANNELS 3 Zrotation Yrotation Xrotation
						End Site
						{
							OFFSET 0.000000 0.000000 0.000000
						}
					}
				}
				JOINT LeftShoulder
				{
					OFFSET 7.884473 12.174932 -3.408961
					CHANNELS 3 Zrotation Yrotation Xrotation
					JOINT LeftArm
					{
						OFFSET 9.097692 3.046888 -0.886815
						CHANNELS 3 Zrotation Yrotation Xrotation
						JOINT LeftForeArm
						{
							OFFSET 25.961220 -1.277207 -2.745643
							CHANNELS 3 Zrotation Yrotation Xrotation
							JOINT LeftHand
							{
								OFFSET 24.923361 0.898606 -0.117091
								CHANNELS 3 Zrotation Yrotation Xrotation
								End Site
								{
									OFFSET 0.000000 0.000000 0.000000
								}
							}
						}
					}
				}
				JOINT RightShoulder
				{
					OFFSET -8.175920 11.883285 -3.861528
					CHANNELS 3 Zrotation Yrotation Xrotation
					JOINT RightArm
					{
						OFFSET -9.601238 3.255117 -0.914307
						CHANNELS 3 Zrotation Yrotation Xrotation
						JOINT RightForeArm
						{
							OFFSET -25.374195 -1.332924 -2.140099
							CHANNELS 3 Zrotation Yrotation Xrotation
							JOINT RightHand
							{
								OFFSET -25.529810 0.777228 -0.555919
								CHANNELS 3 Zrotation Yrotation Xrotation
								End Site
								{
									OFFSET 0.000000 0.000000 0.000000
								}
							}
						}
					}
				}
			}
		}
	}
}
MOTION
Frames: 18
Frame Time: 0.033333
-34.812561 20.184034 95.983208 177.876618 -0.274315 89.572373 -1.423026 0.567756 5.554219 3.009675 -5.775390 -5.944338 0.696840 9.518524 -2.167913 nan nan nan -0.582700 -2.173427 4.091691 -0.217129 -0.631229 -5.309843 6.625698 -6.686843 0.751050 nan nan nan -0.050870 1.554246 1.795931 0.974630 -3.133407 0.450817 0.885905 -1.310776 -1.214530 -3.259865 -3.200512 0.175158 3.484482 -2.561816 -5.008609 -19.730762 0.025202 0.786738 -63.628538 -6.186462 13.498091 3.715368 -15.168552 -4.105313 -12.483207 -13.159380 -9.743327 18.999001 5.692520 0.086649 61.192077 6.424091 16.360424 -4.436204 15.797070 -1.401502 11.562752 9.330056 -7.392406 
-34.849068 20.186464 95.907913 177.863466 -0.184681 89.372811 -1.391240 0.408790 5.907951 3.096641 -5.926978 -6.175547 0.471374 9.481346 -2.292081 nan nan nan -0.542807 -2.108196 4.336498 -0.176769 -0.860916 -5.397503 6.680432 -6.571464 0.778885 nan nan nan 0.314980 1.454721 2.211071 0.751671 -2.966975 -0.263056 0.874124 -1.396476 -0.563018 -3.482653 -3.333238 -0.094607 3.647078 -2.472146 -4.755309 -19.558030 -0.142728 1.091143 -64.039552 -6.735010 12.396116 2.531177 -13.772128 -7.347031 -9.340140 -15.646580 -14.829233 18.474997 6.002883 -0.002546 61.355586 7.065606 16.560094 -3.351909 14.720593 -1.602960 10.251279 10.314152 -8.823224 
-34.862072 20.183382 95.873283 177.857420 -0.183027 89.322297 -1.394981 0.399573 5.990304 3.098617 -5.903914 -6.245005 0.442442 9.512840 -2.277434 nan nan nan -0.557263 -2.099952 4.387849 -0.176496 -0.898867 -5.436265 6.691673 -6.592195 0.837159 nan nan nan 0.390013 1.435483 2.333080 0.685048 -2.936285 -0.395641 0.855554 -1.394133 -0.434050 -3.498762 -3.368651 -0.138028 3.701428 -2.477601 -4.749020 -19.540919 -0.164893 1.114846 -64.041198 -6.891878 12.205253 2.508114 -13.540122 -7.606161 -9.233643 -16.099565 -15.369667 18.382573 6.072361 -0.028121 61.369074 7.163428 16.662151 -3.191290 14.606415 -1.255821 10.221049 10.405276 -8.795120 
-34.862709 20.181557 95.873253 177.849114 -0.183531 89.327737 -1.398917 0.403960 5.998375 3.107354 -5.906359 -6.269146 0.440660 9.516521 -2.281904 nan nan nan -0.554960 -2.091089 4.378960 -0.185779 -0.888743 -5.442762 6.701271 -6.596228 0.850453 nan nan nan 0.372622 1.435025 2.325438 0.689304 -2.934570 -0.384302 0.858756 -1.394521 -0.432951 -3.486053 -3.369386 -0.135276 3.708509 -2.469995 -4.744748 -19.550590 -0.153101 1.107979 -64.040229 -6.891989 12.237739 2.473744 -13.549550 -7.537720 -9.232445 -16.135897 -15.325886 18.411119 6.062208 -0.044131 61.352537 7.174957 16.650824 -3.192734 14.556911 -1.306239 10.209244 10.422599 -8.795776 
-34.855957 20.186470 95.876312 177.827830 -0.173885 89.338862 -1.400521 0.383979 6.005436 3.124413 -5.902991 -6.290913 0.444481 9.526707 -2.284135 nan nan nan -0.538414 -2.082343 4.367228 -0.202349 -0.868542 -5.444686 6.704940 -6.606827 0.871945 nan nan nan 0.350797 1.448562 2.310538 0.705206 -2.932752 -0.374015 0.869297 -1.407486 -0.439630 -3.466344 -3.376344 -0.137650 3.704737 -2.456856 -4.730187 -19.580584 -0.135522 1.092408 -64.017589 -6.866212 12.298286 2.416971 -13.570542 -7.408560 -9.186595 -16.104650 -15.212183 18.452294 6.024041 -0.063610 61.331092 7.158889 16.646019 -3.205225 14.562779 -1.348825 10.145711 10.417635 -8.773803 
-34.855297 20.244776 95.893639 178.036105 -0.048679 89.560420 -1.623732 -0.714798 6.149690 3.536996 -7.552716 -6.674992 -0.041246 8.703827 -1.461500 nan nan nan -0.344116 -1.831593 4.485136 -0.317486 -0.689368 -6.009179 7.188565 -7.296045 1.086580 nan nan nan -0.020372 1.893641 3.449432 1.222558 -2.768253 -1.787261 1.396370 -1.427195 -0.551408 -4.059677 -4.414417 -0.989033 3.805917 -2.337382 -4.594433 -19.798371 -0.276423 0.548970 -64.347800 -6.097774 12.445455 1.823531 -13.642348 -6.411436 -9.847007 -16.681642 -14.982070 18.490105 2.585345 -2.106388 61.310990 3.793681 15.590028 -4.794508 19.467275 2.467789 12.389394 9.918192 -3.936879 
-34.820969 20.241875 95.914047 177.956039 0.004303 89.601879 -1.569599 -0.870868 6.196495 3.559260 -7.419815 -6.770551 -0.060385 8.735660 -1.427645 nan nan nan -0.240326 -1.824056 4.435055 -0.383067 -0.632060 -6.028874 7.181639 -7.303149 1.155771 nan nan nan 0.045598 1.982124 3.504281 1.202869 -2.709593 -1.954303 1.399440 -1.517465 -0.519297 -3.993792 -4.477978 -0.886570 3.785388 -2.237715 -4.688776 -19.728599 -0.240275 0.546334 -64.493634 -5.957261 12.662196 1.865191 -13.853301 -5.840848 -9.477638 -16.320992 -14.761581 18.138137 2.301137 -2.219117 61.762965 3.688357 15.725045 -4.764338 19.685871 2.985243 12.205286 9.712715 -3.960338 
-34.811340 20.234417 95.918022 177.912737 0.003373 89.630882 -1.573752 -0.882989 6.194481 3.577761 -7.369722 -6.801384 -0.066873 8.726695 -1.440578 nan nan nan -0.228552 -1.828295 4.390054 -0.401111 -0.657238 -6.046714 7.213728 -7.302835 1.103423 nan nan nan 0.083284 1.981862 3.550683 1.164249 -2.681180 -2.065706 1.386644 -1.524590 -0.478919 -3.917931 -4.483313 -0.848457 3.776566 -2.170180 -4.748419 -19.612024 -0.184749 0.563398 -64.692823 -5.891793 12.758018 2.057523 -13.983393 -5.744587 -9.358484 -16.296744 -14.943034 17.874408 2.139090 -2.277083 62.112804 3.634335 15.839813 -4.826928 19.834429 3.171451 12.192930 9.700085 -4.243793 
-34.803909 20.228802 95.916214 177.911807 0.002213 89.675669 -1.571030 -0.904865 6.156334 3.593985 -7.362023 -6.804255 -0.040782 8.656877 -1.411316 nan nan nan -0.217771 -1.830419 4.356745 -0.424562 -0.688816 -6.096599 7.196269 -7.314699 1.099739 nan nan nan 0.083583 1.985020 3.500547 1.148222 -2.674545 -2.075372 1.367890 -1.500654 -0.422972 -3.835347 -4.494709 -0.815493 3.796841 -2.239491 -4.837441 -19.531934 -0.183826 0.555877 -64.911211 -5.887468 12.815682 2.367480 -13.996087 -5.785122 -9.561438 -16.360205 -14.929640 17.761289 2.057056 -2.320597 62.266728 3.542326 15.958012 -4.926092 20.016495 3.500187 12.482264 9.689417 -4.195657 
-34.795807 20.219059 95.905708 177.913058 -0.008195 89.750305 -1.573464 -0.944364 6.082146 3.586318 -7.419008 -6.806984 -0.007394 8.522213 -1.284529 nan nan nan -0.227628 -1.794038 4.289280 -0.426879 -0.737980 -6.130159 7.189406 -7.311624 1.146239 nan nan nan 0.064231 1.987250 3.398492 1.122869 -2.655691 -2.052927 1.346843 -1.492412 -0.375889 -3.766959 -4.461773 -0.792569 3.851814 -2.359600 -4.926192 -19.455946 -0.190767 0.566042 -65.171038 -5.966730 12.791362 2.769184 -13.853640 -5.893969 -10.106710 -16.585206 -14.778229 17.702033 2.055686 -2.372271 62.438833 3.566869 16.042031 -5.098069 19.854032 3.833323 13.052174 9.699435 -3.893950 
-34.796192 20.190445 95.869888 177.926147 -0.039211 89.733623 -1.667059 -1.037105 6.105342 3.674036 -7.439273 -6.831704 0.036610 8.383513 -1.107578 nan nan nan -0.298584 -1.655674 4.323881 -0.375473 -0.912919 -6.179785 7.379839 -7.322046 1.161183 nan nan nan 0.013700 2.034459 3.096365 1.086817 -2.572575 -1.814988 1.376242 -1.454088 -0.112786 -3.842868 -4.494684 -0.672172 3.960563 -2.512217 -5.141621 -19.250771 -0.698773 0.784777 -65.514349 -6.331798 12.644381 3.098704 -13.465877 -6.321854 -10.850590 -17.330093 -15.054838 17.414479 2.157356 -2.571275 62.932848 3.667251 15.949433 -5.461184 19.402049 4.061202 13.768862 9.796887 -3.494748 
-34.797897 20.174055 95.861656 177.909455 -0.031288 89.765556 -1.680225 -1.028025 6.083429 3.690684 -7.411758 -6.866760 0.060427 8.364942 -1.044226 nan nan nan -0.320224 -1.660640 4.243458 -0.340658 -0.947041 -6.116351 7.415704 -7.324623 1.168661 nan nan nan 0.072652 2.024568 3.142736 1.044734 -2.551052 -1.950739 1.358962 -1.437253 -0.031019 -3.830450 -4.504059 -0.669871 3.954779 -2.508031 -5.184839 -19.155312 -0.694760 0.797984 -65.635074 -6.383206 12.634962 3.158401 -13.424976 -6.274411 -11.054155 -17.437527 -15.117936 17.237172 2.138751 -2.615322 63.224720 3.703095 16.012842 -5.584824 19.227290 4.147369 13.941746 9.823297 -3.520161 
-34.805588 20.171459 95.856407 177.888921 -0.023415 89.747154 -1.671270 -1.011606 6.136780 3.681491 -7.370064 -6.914636 0.069657 8.395024 -1.072243 nan nan nan -0.349352 -1.702821 4.242013 -0.301796 -0.946559 -6.083527 7.396139 -7.312182 1.162255 nan nan nan 0.123416 2.026551 3.221431 1.016705 -2.540073 -2.068779 1.358407 -1.456639 0.060528 -3.797360 -4.531561 -0.677641 3.929170 -2.429621 -5.253790 -19.153366 -0.689499 0.798250 -65.665245 -6.381868 12.624273 3.214080 -13.461437 -6.250719 -11.082655 -17.338132 -15.234803 17.087608 2.103756 -2.647714 63.363082 3.677574 16.113415 -5.584238 19.314218 4.306827 14.175049 9.771481 -3.667954 
-34.813469 20.165911 95.858299 177.906109 -0.044681 89.737420 -1.668011 -1.058200 6.178630 3.630913 -7.359799 -6.960134 0.087924 8.452383 -1.090713 nan nan nan -0.387390 -1.736075 4.264370 -0.304722 -0.909335 -6.109993 7.383384 -7.299489 1.169960 nan nan nan 0.119538 2.047582 3.282835 1.019348 -2.555268 -2.113893 1.378019 -1.510899 0.070500 -3.807216 -4.579077 -0.690230 3.877853 -2.305967 -5.318288 -19.203545 -0.662295 0.802580 -65.653601 -6.351109 12.628882 3.249835 -13.550725 -6.184473 -11.064508 -17.287724 -15.329015 16.983167 2.031210 -2.637247 63.371577 3.598879 16.163055 -5.542738 19.630345 4.478215 14.239371 9.695560 -3.773872 
-34.819237 20.160259 95.866005 177.909471 -0.054737 89.728735 -1.663240 -1.076366 6.213670 3.615698 -7.374188 -7.005981 0.140307 8.434930 -1.002465 nan nan nan -0.410390 -1.744664 4.290477 -0.307809 -0.892780 -6.135890 7.412576 -7.281754 1.164198 nan nan nan 0.125752 2.052289 3.341797 1.025819 -2.552563 -2.147683 1.389089 -1.550010 0.044075 -3.844431 -4.599475 -0.716048 3.841626 -2.284090 -5.298237 -19.255012 -0.627997 0.790802 -65.659514 -6.297728 12.631714 3.301334 -13.610813 -6.160672 -10.858959 -17.270931 -15.418029 16.949607 1.997912 -2.600310 63.390938 3.539481 16.118744 -5.641703 19.850440 4.393659 13.775301 9.676618 -3.777552 
-34.820583 20.162384 95.870087 177.868057 -0.043817 89.711740 -1.672998 -1.077264 6.260492 3.649737 -7.363040 -7.054945 0.164765 8.413777 -0.908133 nan nan nan -0.411731 -1.730707 4.298287 -0.290276 -0.904638 -6.125827 7.439516 -7.256038 1.175399 nan nan nan 0.144934 2.045800 3.366861 1.001964 -2.527373 -2.187436 1.378692 -1.539415 0.077994 -3.842329 -4.562500 -0.726568 3.879091 -2.327660 -5.258788 -19.196807 -0.597353 0.784688 -65.758889 -6.334404 12.629513 3.388367 -13.502966 -6.174455 -10.722629 -17.359438 -15.420845 16.948035 2.104773 -2.617184 63.607560 3.671098 16.124239 -5.935644 19.350030 4.159619 13.471486 9.752338 -3.756612 
-34.822098 20.161900 95.871376 177.835195 -0.087045 89.699148 -1.721686 -1.035429 6.299861 3.655693 -7.380994 -7.083365 0.181964 8.385431 -0.894331 nan nan nan -0.471195 -1.735695 4.324810 -0.277427 -0.895688 -6.161009 7.466876 -7.254271 1.181711 nan nan nan 0.127313 2.054671 3.377771 0.984890 -2.515342 -2.174534 1.367361 -1.563016 0.093279 -3.864547 -4.538775 -0.778354 3.910844 -2.305037 -5.258070 -19.195581 -0.597020 0.744785 -65.637431 -6.213399 12.717791 3.201257 -13.721833 -6.086964 -10.376452 -17.293494 -15.577133 17.001050 2.047284 -2.565959 63.473514 3.576070 16.087988 -5.744083 19.773292 4.031519 13.093055 9.802948 -4.022554 
-34.825439 20.151802 95.868683 177.833006 -0.126585 89.731595 -1.759702 -1.051831 6.242652 3.644324 -7.383849 -7.047729 0.178144 8.372060 -0.920089 nan nan nan -0.515622 -1.730431 4.301958 -0.276902 -0.934581 -6.199844 7.452339 -7.246110 1.190392 nan nan nan 0.065275 2.057508 3.371734 0.983121 -2.521281 -2.164836 1.387704 -1.534410 0.068477 -3.844121 -4.555440 -0.775888 3.933982 -2.298267 -5.288287 -19.095012 -0.603273 0.748885 -65.576042 -6.238678 12.780527 2.879505 -13.760386 -6.057073 -10.181917 -17.345748 -15.758343 16.953058 2.070628 -2.571373 63.549513 3.664605 16.126031 -5.677426 19.485915 3.891831 12.940602 9.856596 -4.253221 
